<svg width="894" height="992" viewBox="0 0 894 992" fill="none" xmlns="http://www.w3.org/2000/svg">
<path fill-rule="evenodd" clip-rule="evenodd" d="M231.87 87.4446C135.529 135.541 55.2137 177.177 53.3994 179.973C51.5807 182.769 50.5777 265.321 51.1706 363.423L52.2449 541.791L228.326 630.542C369.788 701.844 407.911 719.289 422.238 719.275C436.48 719.262 475.165 701.684 614.451 631.92C710.36 583.886 790.091 541.3 791.629 537.291C796.394 524.864 786.293 513.314 758.303 499.179L731.396 485.592L583.506 559.4C484.9 608.607 430.859 633.204 421.36 633.204C411.86 633.204 357.944 608.67 259.766 559.677L112.424 486.149V448.197C112.424 426.467 114.288 410.245 116.78 410.245C119.173 410.245 185.478 442.351 264.126 481.592C351.748 525.31 412.212 552.939 420.272 552.939C436.917 552.939 787.693 378.099 791.629 367.843C796.381 355.455 786.32 343.879 758.682 329.922L732.154 316.526L585.021 390.138C471.928 446.725 433.962 463.755 420.892 463.755C407.826 463.755 370.417 446.984 259.272 391.293L114.653 318.832L113.365 279.814C112.563 255.525 113.789 240.796 116.606 240.796C119.098 240.796 185.478 272.902 264.126 312.143C359.29 359.624 411.887 383.49 421.382 383.49C431.002 383.49 492.933 354.826 611.705 295.394C785.624 208.378 787.791 207.129 789.164 192.931L790.555 178.559L611.772 89.2773C502.286 34.6033 427.962 0 420.013 0C412.074 0 338.994 33.9656 231.87 87.4446Z" fill="white"/>
<g filter="url(#filter0_d_1158_40)">
<path d="M495.247 245.392L346.718 149.121L284.731 180.773L257.039 162.824L415.746 81.7841L443.438 99.7331L381.452 131.385L529.98 227.656L495.247 245.392Z" fill="#255E97"/>
</g>
<path d="M107.984 778.306V804.397H72.5606V912H39.994V804.397H4.57075V778.306H107.984ZM224.504 857.151C224.504 860.198 224.313 863.372 223.932 866.673H150.229C150.737 873.276 152.832 878.354 156.514 881.909C160.323 885.337 164.957 887.051 170.417 887.051C178.542 887.051 184.192 883.623 187.366 876.767H222.028C220.25 883.75 217.013 890.035 212.315 895.621C207.744 901.208 201.967 905.588 194.984 908.762C188.001 911.937 180.193 913.524 171.559 913.524C161.148 913.524 151.88 911.302 143.754 906.858C135.628 902.414 129.28 896.066 124.709 887.813C120.138 879.56 117.853 869.911 117.853 858.865C117.853 847.819 120.075 838.17 124.519 829.917C129.089 821.664 135.438 815.316 143.563 810.872C151.689 806.428 161.021 804.207 171.559 804.207C181.843 804.207 190.985 806.365 198.984 810.682C206.983 814.999 213.204 821.156 217.648 829.155C222.218 837.154 224.504 846.486 224.504 857.151ZM191.175 848.581C191.175 842.994 189.271 838.551 185.462 835.25C181.653 831.948 176.892 830.298 171.178 830.298C165.719 830.298 161.085 831.885 157.276 835.059C153.594 838.233 151.308 842.74 150.42 848.581H191.175ZM235.209 858.865C235.209 847.819 237.431 838.17 241.875 829.917C246.445 821.664 252.73 815.316 260.729 810.872C268.855 806.428 278.123 804.207 288.534 804.207C301.866 804.207 312.975 807.698 321.863 814.681C330.877 821.664 336.781 831.504 339.574 844.201H304.913C301.993 836.075 296.343 832.012 287.963 832.012C281.996 832.012 277.234 834.361 273.679 839.059C270.124 843.629 268.347 850.231 268.347 858.865C268.347 867.499 270.124 874.164 273.679 878.862C277.234 883.433 281.996 885.718 287.963 885.718C296.343 885.718 301.993 881.655 304.913 873.53H339.574C336.781 885.972 330.877 895.748 321.863 902.859C312.848 909.969 301.739 913.524 288.534 913.524C278.123 913.524 268.855 911.302 260.729 906.858C252.73 902.414 246.445 896.066 241.875 887.813C237.431 879.56 235.209 869.911 235.209 858.865ZM389.561 886.861H432.221V912H356.994V778.306H389.561V886.861ZM547.93 857.151C547.93 860.198 547.74 863.372 547.359 866.673H473.655C474.163 873.276 476.258 878.354 479.94 881.909C483.749 885.337 488.383 887.051 493.843 887.051C501.969 887.051 507.619 883.623 510.793 876.767H545.454C543.677 883.75 540.439 890.035 535.741 895.621C531.171 901.208 525.394 905.588 518.411 908.762C511.428 911.937 503.619 913.524 494.986 913.524C484.575 913.524 475.306 911.302 467.18 906.858C459.055 902.414 452.706 896.066 448.135 887.813C443.565 879.56 441.279 869.911 441.279 858.865C441.279 847.819 443.501 838.17 447.945 829.917C452.516 821.664 458.864 815.316 466.99 810.872C475.116 806.428 484.448 804.207 494.986 804.207C505.27 804.207 514.411 806.365 522.41 810.682C530.409 814.999 536.63 821.156 541.074 829.155C545.645 837.154 547.93 846.486 547.93 857.151ZM514.602 848.581C514.602 842.994 512.697 838.551 508.888 835.25C505.079 831.948 500.318 830.298 494.605 830.298C489.145 830.298 484.511 831.885 480.702 835.059C477.02 838.233 474.735 842.74 473.846 848.581H514.602ZM558.635 858.675C558.635 847.756 560.667 838.17 564.73 829.917C568.92 821.664 574.57 815.316 581.68 810.872C588.79 806.428 596.725 804.207 605.486 804.207C612.976 804.207 619.515 805.73 625.102 808.777C630.815 811.824 635.195 815.824 638.243 820.776V805.73H670.809V912H638.243V896.955C635.068 901.906 630.625 905.906 624.911 908.953C619.325 912 612.786 913.524 605.295 913.524C596.661 913.524 588.79 911.302 581.68 906.858C574.57 902.287 568.92 895.875 564.73 887.623C560.667 879.243 558.635 869.594 558.635 858.675ZM638.243 858.865C638.243 850.739 635.957 844.328 631.386 839.63C626.943 834.932 621.483 832.583 615.008 832.583C608.533 832.583 603.01 834.932 598.439 839.63C593.995 844.201 591.773 850.549 591.773 858.675C591.773 866.8 593.995 873.276 598.439 878.1C603.01 882.798 608.533 885.147 615.008 885.147C621.483 885.147 626.943 882.798 631.386 878.1C635.957 873.403 638.243 866.991 638.243 858.865ZM726.936 823.442C730.745 817.601 735.506 813.031 741.22 809.73C746.933 806.301 753.281 804.587 760.265 804.587V839.059H751.313C743.188 839.059 737.093 840.836 733.03 844.391C728.968 847.819 726.936 853.913 726.936 862.674V912H694.37V805.73H726.936V823.442ZM840.583 804.587C853.025 804.587 862.929 808.65 870.293 816.776C877.784 824.775 881.529 835.821 881.529 849.914V912H849.153V854.294C849.153 847.184 847.312 841.661 843.63 837.725C839.948 833.789 834.996 831.821 828.775 831.821C822.554 831.821 817.602 833.789 813.92 837.725C810.238 841.661 808.397 847.184 808.397 854.294V912H775.831V805.73H808.397V819.823C811.698 815.126 816.142 811.444 821.729 808.777C827.315 805.984 833.6 804.587 840.583 804.587Z" fill="white"/>
<rect x="12.7373" y="963.144" width="785.539" height="28.8557" rx="14.4279" fill="white"/>
<defs>
<filter id="filter0_d_1158_40" x="226.039" y="69.7842" width="384.928" height="245.26" filterUnits="userSpaceOnUse" color-interpolation-filters="sRGB">
<feFlood flood-opacity="0" result="BackgroundImageFix"/>
<feColorMatrix in="SourceAlpha" type="matrix" values="0 0 0 0 0 0 0 0 0 0 0 0 0 0 0 0 0 0 127 0" result="hardAlpha"/>
<feOffset dx="-6" dy="13"/>
<feGaussianBlur stdDeviation="12.5"/>
<feComposite in2="hardAlpha" operator="out"/>
<feColorMatrix type="matrix" values="0 0 0 0 0 0 0 0 0 0 0 0 0 0 0 0 0 0 0.08 0"/>
<feBlend mode="normal" in2="BackgroundImageFix" result="effect1_dropShadow_1158_40"/>
<feBlend mode="normal" in="SourceGraphic" in2="effect1_dropShadow_1158_40" result="shape"/>
</filter>
</defs>
</svg>
